<svg width="151" height="32" viewBox="0 0 151 32" fill="none" xmlns="http://www.w3.org/2000/svg">
<path fill-rule="evenodd" clip-rule="evenodd" d="M10.0579 21.0837C9.73811 20.7951 9.31061 20.6177 8.84288 20.6177H8.22243C7.78129 20.6177 7.1172 20.0297 7.1172 19.5404V16.917V15.2623V12.0115H8.58106C9.56493 12.0115 10.3702 11.2242 10.3702 10.2622C10.3702 9.30016 9.56493 8.51281 8.58106 8.51281H7.1172V6.13209C7.1172 5.04407 6.20697 4.15472 5.09424 4.15472C3.9822 4.15472 3.07197 5.04407 3.07197 6.13209V8.51281H2.04788C1.06402 8.51281 0.258789 9.30016 0.258789 10.2622C0.258789 11.2242 1.06402 12.0115 2.04788 12.0115H3.07197C3.07197 14.9303 3.07197 17.6537 3.07197 20.5724C3.04402 21.1891 3.32697 21.8191 3.32697 21.8191C3.77629 22.9511 4.79152 23.8071 6.03311 24.0538C6.27243 24.1011 6.51993 24.1265 6.77288 24.1265H8.84288C9.82947 24.1265 10.6367 23.3365 10.6367 22.3718C10.6367 22.0224 10.5311 21.6964 10.3497 21.4224C10.2672 21.2977 10.169 21.1844 10.0579 21.0837ZM44.9636 17.0563H37.1772C38.8067 22.4151 43.4254 20.5764 45.2608 19.779C45.9297 19.489 47.4317 20.2204 47.2517 21.4404C47.0717 22.6598 45.4592 23.1931 45.4592 23.1931C45.4592 23.1931 43.4124 24.0165 40.9224 23.9218C36.3877 23.7491 33.1552 20.3197 33.0181 15.8223C33.1558 11.3249 36.6454 7.72279 40.9306 7.72279C47.5981 7.72279 51.359 17.0563 46.8413 17.0563H44.9636ZM44.9636 14.3336C44.6261 12.3942 42.9917 10.8209 41.0704 10.8209C39.1497 10.8209 37.5045 12.3376 37.1772 14.3336H44.9636ZM57.8677 21.0837C57.5479 20.7951 57.1204 20.6177 56.6527 20.6177H56.0322C55.5904 20.6177 54.9263 20.0297 54.9263 19.5404V16.917V15.2623V12.0115H56.3908C57.3747 12.0115 58.1799 11.2242 58.1799 10.2622C58.1799 9.30016 57.3747 8.51281 56.3908 8.51281H54.9263V6.13209C54.9263 5.04407 54.0167 4.15472 52.904 4.15472C51.792 4.15472 50.8817 5.04407 50.8817 6.13209V8.51281H49.857C48.8738 8.51281 48.0686 9.30016 48.0686 10.2622C48.0686 11.2242 48.8738 12.0115 49.857 12.0115H50.8817C50.8817 14.9303 50.8817 17.6537 50.8817 20.5724C50.8538 21.1891 51.1367 21.8191 51.1367 21.8191C51.5861 22.9511 52.6013 23.8071 53.8429 24.0538C54.0822 24.1011 54.329 24.1265 54.5827 24.1265H56.6527C57.6392 24.1265 58.4465 23.3365 58.4465 22.3718C58.4465 22.0224 58.3408 21.6964 58.1595 21.4224C58.077 21.2977 57.9788 21.1844 57.8677 21.0837ZM19.2829 9.97684V21.8764C19.2829 22.9638 20.1931 23.8538 21.3052 23.8538C22.4179 23.8538 23.3274 22.9638 23.3274 21.8764V20.5611V19.887L25.1356 17.859L25.409 18.2263L28.9756 23.0304C29.609 23.8825 30.8397 24.0738 31.7111 23.4545C32.5824 22.8358 32.7781 21.6324 32.1454 20.7804L28.049 15.2643L31.7138 11.1535C32.369 10.4188 32.2899 9.29349 31.5386 8.65281C30.7872 8.0128 29.6363 8.09013 28.9817 8.82481L25.8645 12.3216L23.3274 15.1676V8.90548V4.34139C23.3274 3.25403 22.4179 2.36401 21.3052 2.36401C20.1945 2.36401 19.2856 3.25203 19.2829 4.33739C19.2829 4.33872 19.2829 4.34006 19.2829 4.34139V9.97684ZM14.3458 7.83746C15.4579 7.83746 16.3681 8.72748 16.3681 9.81484V21.5571C16.3681 22.6444 15.4579 23.5345 14.3458 23.5345C13.2331 23.5345 12.3236 22.6444 12.3236 21.5571V9.81484C12.3236 8.72748 13.2331 7.83746 14.3458 7.83746Z" fill="#191825" fill-opacity="0.5"/>
<path fill-rule="evenodd" clip-rule="evenodd" d="M100.066 15.769C100.066 12.6789 102.422 10.1742 105.328 10.1742C106.175 10.1742 106.975 10.3869 107.684 10.7649C108.114 10.9942 108.51 11.2843 108.864 11.6249C108.875 11.6283 108.886 11.6323 108.897 11.6356C109.032 11.6829 109.178 11.7083 109.329 11.7083C110.043 11.7083 110.621 11.1429 110.621 10.4449C110.621 10.2149 110.558 9.99889 110.448 9.81355C110.441 9.80089 110.434 9.78755 110.428 9.77355C110.1 9.46955 109.745 9.19354 109.37 8.94887C108.135 8.14552 106.669 7.68018 105.095 7.68018C100.708 7.68018 97.1506 11.3016 97.1506 15.769C97.1506 20.2364 100.708 23.8578 105.095 23.8578C106.532 23.8578 107.88 23.4692 109.042 22.7905C109.558 22.4892 110.036 22.1318 110.471 21.7251C110.474 21.7185 110.477 21.7125 110.48 21.7065C110.57 21.5345 110.621 21.3391 110.621 21.1318C110.621 20.4344 110.043 19.8691 109.329 19.8691C109.136 19.8691 108.952 19.9104 108.787 19.9858C108.623 20.1371 108.451 20.2778 108.272 20.4071C108.271 20.4078 108.27 20.4084 108.27 20.4091C108.257 20.4278 108.236 20.4404 108.211 20.4498C107.919 20.6531 107.607 20.8271 107.279 20.9665C106.676 21.2225 106.018 21.3631 105.328 21.3631C102.422 21.3631 100.066 18.8584 100.066 15.769ZM131.643 10.2896V9.31488C131.643 8.56886 131.019 7.95818 130.256 7.95818C129.493 7.95818 128.868 8.56886 128.868 9.31488V22.2178C128.868 22.9638 129.493 23.5745 130.256 23.5745C131.019 23.5745 131.643 22.9638 131.643 22.2178V12.2589C133.494 10.2202 136.833 8.6762 138.032 12.2589V22.2178C138.032 22.9638 138.656 23.5745 139.419 23.5745C140.182 23.5745 140.807 22.9638 140.807 22.2178V12.2589C143.516 9.59955 146.014 9.30354 147.483 12.2589V22.2178C147.483 22.9638 148.108 23.5745 148.871 23.5745C149.634 23.5745 150.259 22.9638 150.259 22.2178V11.3463C149.878 9.79222 149.06 8.77753 148.033 8.23552C145.832 7.07416 142.673 8.08685 140.807 10.6296C140.679 10.2456 140.514 9.90156 140.318 9.59755C138.592 6.92616 134.429 7.3095 131.643 10.2896ZM119.552 7.68018C123.939 7.68018 127.496 11.3016 127.496 15.769C127.496 20.2364 123.939 23.8578 119.552 23.8578C115.164 23.8578 111.607 20.2364 111.607 15.769C111.607 11.3016 115.164 7.68018 119.552 7.68018ZM119.515 10.1742C122.254 10.1742 124.474 12.6789 124.474 15.769C124.474 18.8584 122.254 21.3631 119.515 21.3631C116.775 21.3631 114.555 18.8584 114.555 15.769C114.555 12.6789 116.775 10.1742 119.515 10.1742Z" fill="#191825" fill-opacity="0.5"/>
<path fill-rule="evenodd" clip-rule="evenodd" d="M77.8027 0C86.8402 0 94.1663 7.16348 94.1663 15.9997C94.1663 24.8365 86.8402 32 77.8027 32C68.7658 32 61.4397 24.8365 61.4397 15.9997C61.4397 7.16348 68.7658 0 77.8027 0Z" fill="#191825" fill-opacity="0.5"/>
</svg>
