<svg width="190" height="32" viewBox="0 0 190 32" fill="none" xmlns="http://www.w3.org/2000/svg">
<mask id="mask0_12_254" style="mask-type:luminance" maskUnits="userSpaceOnUse" x="0" y="0" width="190" height="32">
<path d="M189.121 0H0.517578V32H189.121V0Z" fill="white"/>
</mask>
<g mask="url(#mask0_12_254)">
<mask id="mask1_12_254" style="mask-type:luminance" maskUnits="userSpaceOnUse" x="0" y="0" width="190" height="32">
<path d="M189.121 0H0.517578V32H189.121V0Z" fill="white"/>
</mask>
<g mask="url(#mask1_12_254)">
<path d="M74.4746 3.50312C74.4746 1.92283 75.7565 0.633545 77.3442 0.633545C78.9245 0.633545 80.2138 1.91546 80.2138 3.50312C80.1585 5.08342 78.825 6.31744 77.241 6.26219C75.7381 6.20693 74.5335 5.00238 74.4746 3.50312Z" fill="#191825" fill-opacity="0.5"/>
</g>
<mask id="mask2_12_254" style="mask-type:luminance" maskUnits="userSpaceOnUse" x="0" y="0" width="190" height="32">
<path d="M189.121 0H0.517578V32H189.121V0Z" fill="white"/>
</mask>
<g mask="url(#mask2_12_254)">
<path d="M119.699 22.6177C119.699 21.0263 120.981 19.7407 122.557 19.7407C124.145 19.7407 125.431 21.0263 125.431 22.6177C125.431 24.2053 124.145 25.4909 122.557 25.4909C120.981 25.4909 119.699 24.2016 119.699 22.6177Z" fill="#191825" fill-opacity="0.5"/>
</g>
<mask id="mask3_12_254" style="mask-type:luminance" maskUnits="userSpaceOnUse" x="0" y="0" width="190" height="32">
<path d="M189.121 0H0.517578V32H189.121V0Z" fill="white"/>
</mask>
<g mask="url(#mask3_12_254)">
<path d="M27.4453 21.3763C24.9809 21.3763 23.2607 19.4166 23.2607 16.6133C23.2607 13.8137 24.9772 11.854 27.4453 11.854C29.9244 11.854 31.6631 13.8137 31.6631 16.6133C31.6594 19.4608 29.9649 21.3763 27.4453 21.3763ZM27.4453 7.66939C22.2255 7.66939 18.4351 11.4304 18.4351 16.6133C18.4351 21.7962 22.2292 25.5573 27.4453 25.5573C32.6908 25.5573 36.4924 21.7962 36.4924 16.617C36.4924 11.4304 32.6835 7.66939 27.4453 7.66939ZM68.9271 17.0627C68.7466 16.7128 68.5145 16.3849 68.2456 16.0976L68.0872 15.9318L68.253 15.7735C68.4924 15.5193 68.7392 15.2209 68.9713 14.8746L73.5795 8.02302H67.984L64.5214 13.3827C64.3262 13.6738 63.932 13.8101 63.3389 13.8101H62.547V3.67629C62.547 1.65027 61.2871 1.37769 59.9205 1.37769H57.5851L57.5887 25.292H62.5433V18.1236H63.0074C63.571 18.1236 63.9541 18.1899 64.1346 18.4957L66.8679 23.6565C67.6341 25.0563 68.3929 25.2957 69.8222 25.2957H73.6311L70.7984 20.6212L68.9271 17.0627ZM92.9961 7.63255C90.4728 7.63255 88.8631 8.75238 87.9642 9.70277L87.6659 10.0085L87.559 9.59594C87.2938 8.57925 86.4024 8.0267 85.0578 8.0267H82.8366L82.8513 25.2957H87.7764V17.339C87.7764 16.5581 87.8758 15.8876 88.0821 15.2688C88.631 13.4048 90.1597 12.2408 92.0678 12.2408C93.6039 12.2408 94.2081 13.0512 94.2081 15.1509V22.6729C94.2081 24.4595 95.0332 25.2994 96.8271 25.2994H99.1663L99.1552 14.3147C99.1552 9.93484 97.0224 7.63255 92.9961 7.63255ZM77.4069 8.02302H75.0714L75.0861 21.3763V25.292H77.5763L77.6647 25.2957L78.8288 25.292H79.9817V25.2884H79.9928L80.0038 10.6495C79.9965 8.88131 79.1529 8.02302 77.4069 8.02302ZM46.7809 21.3763C44.3165 21.3763 42.5962 19.4166 42.5962 16.6133C42.5962 13.8137 44.3165 11.854 46.7809 11.854C49.2563 11.854 50.9987 13.8137 50.9987 16.6133C50.995 19.4608 49.3005 21.3763 46.7809 21.3763ZM46.7809 7.66939C41.5574 7.66939 37.7633 11.4304 37.7633 16.6133C37.7633 21.7962 41.5574 25.5573 46.7809 25.5573C52.0154 25.5573 55.8279 21.7962 55.8279 16.617C55.8279 11.4304 52.019 7.66939 46.7809 7.66939Z" fill="#191825" fill-opacity="0.5"/>
</g>
</g>
<mask id="mask4_12_254" style="mask-type:luminance" maskUnits="userSpaceOnUse" x="0" y="0" width="190" height="32">
<path d="M189.121 0H0.517578V32H189.121V0Z" fill="white"/>
</mask>
<g mask="url(#mask4_12_254)">
<mask id="mask5_12_254" style="mask-type:luminance" maskUnits="userSpaceOnUse" x="0" y="0" width="190" height="32">
<path d="M189.081 0.629883H0.517578V31.9595H189.081V0.629883Z" fill="white"/>
</mask>
<g mask="url(#mask5_12_254)">
<mask id="mask6_12_254" style="mask-type:luminance" maskUnits="userSpaceOnUse" x="0" y="0" width="190" height="32">
<path d="M189.121 0H0.517578V32H189.121V0Z" fill="white"/>
</mask>
<g mask="url(#mask6_12_254)">
<path d="M152.31 21.3763C149.846 21.3763 148.125 19.4166 148.125 16.6134C148.125 13.8138 149.846 11.8541 152.31 11.8541C154.789 11.8541 156.528 13.8138 156.528 16.6134C156.528 19.4608 154.83 21.3763 152.31 21.3763ZM152.31 7.66943C147.087 7.66943 143.292 11.4305 143.292 16.6134C143.292 21.7963 147.079 25.5573 152.31 25.5573C157.548 25.5573 161.357 21.7963 161.357 16.6171C161.357 11.4305 157.545 7.66943 152.31 7.66943Z" fill="#191825" fill-opacity="0.5"/>
</g>
<mask id="mask7_12_254" style="mask-type:luminance" maskUnits="userSpaceOnUse" x="0" y="0" width="190" height="32">
<path d="M189.121 0H0.517578V32H189.121V0Z" fill="white"/>
</mask>
<g mask="url(#mask7_12_254)">
<path d="M109.532 20.6101C106.839 20.6101 105.885 18.2636 105.885 16.0645C105.885 15.092 106.132 11.9351 109.281 11.9351C110.843 11.9351 112.925 12.3845 112.925 16.2229C112.921 19.8513 111.075 20.6101 109.532 20.6101ZM115.477 7.97883C114.542 7.97883 113.823 8.35088 113.462 9.03236L113.33 9.29758L113.101 9.09498C112.306 8.40613 110.88 7.59204 108.57 7.59204C103.966 7.59204 100.868 11.0473 100.868 16.1971C100.868 21.3395 104.076 24.9311 108.666 24.9311C110.232 24.9311 111.473 24.5627 112.453 23.8186L112.829 23.535V24.0138C112.829 26.3235 111.337 27.5943 108.633 27.5943C107.314 27.5943 106.121 27.2739 105.321 26.9829C104.279 26.6661 103.664 26.9313 103.244 27.9738L102.85 28.9389L102.297 30.3497L102.64 30.5302C104.371 31.4511 106.625 31.9963 108.659 31.9963C112.851 31.9963 117.746 29.8524 117.746 23.8112L117.761 7.96778H115.477" fill="#191825" fill-opacity="0.5"/>
</g>
</g>
</g>
<mask id="mask8_12_254" style="mask-type:luminance" maskUnits="userSpaceOnUse" x="0" y="0" width="190" height="32">
<path d="M189.121 0H0.517578V32H189.121V0Z" fill="white"/>
</mask>
<g mask="url(#mask8_12_254)">
<mask id="mask9_12_254" style="mask-type:luminance" maskUnits="userSpaceOnUse" x="0" y="0" width="190" height="32">
<path d="M189.121 0H0.517578V32H189.121V0Z" fill="white"/>
</mask>
<g mask="url(#mask9_12_254)">
<path d="M9.11157 21.1737L5.10006 21.17V16.3812C5.10006 15.3535 5.49789 14.8267 6.37092 14.7015H9.1042C11.0529 14.7015 12.3127 15.9318 12.32 17.921C12.32 19.9654 11.0897 21.1737 9.11157 21.1737ZM5.10006 8.25136V6.99154C5.10006 5.88644 5.5642 5.36337 6.59194 5.29706H8.64374C10.4009 5.29706 11.4544 6.35059 11.4544 8.11138C11.4544 9.45592 10.7324 11.0215 8.70637 11.0215H5.10006V8.25136ZM14.2245 13.0328L13.5025 12.6239L14.1324 12.0824C14.8728 11.4525 16.0995 10.0269 16.0995 7.56988C16.0995 3.80886 13.1857 1.38501 8.67321 1.38501H2.94143C1.60426 1.4329 0.532313 2.52694 0.517578 3.86412V25.1999H8.78004C13.7972 25.1999 17.0315 22.4703 17.0315 18.2415C17.0315 15.9723 15.9816 14.0237 14.2245 13.0328Z" fill="#191825" fill-opacity="0.5"/>
</g>
<mask id="mask10_12_254" style="mask-type:luminance" maskUnits="userSpaceOnUse" x="0" y="0" width="190" height="32">
<path d="M189.121 0H0.517578V32H189.121V0Z" fill="white"/>
</mask>
<g mask="url(#mask10_12_254)">
<path d="M183.349 7.68776C181.293 7.69145 179.345 8.63815 178.063 10.2516L177.706 10.701L177.426 10.1963C176.512 8.53133 174.946 7.69145 172.758 7.69145C170.471 7.69145 168.935 8.966 168.22 9.72852L167.756 10.2332L167.575 9.56644C167.318 8.60868 166.463 8.08192 165.174 8.08192H163.103L163.081 25.2846H167.782V17.6889C167.782 17.0222 167.863 16.3665 168.029 15.6776C168.478 13.8432 169.712 11.8687 171.786 12.064C173.06 12.1892 173.687 13.1764 173.687 15.0809V25.281H178.42V17.6852C178.42 16.8527 178.498 16.2265 178.685 15.6076C179.061 13.8542 180.354 12.0566 182.354 12.0566C183.802 12.0566 184.34 12.8744 184.34 15.0809V22.765C184.34 24.5 185.113 25.281 186.852 25.281H189.062L189.066 14.2999C189.081 9.90902 187.147 7.68776 183.349 7.68776ZM140.57 19.3097C140.556 19.3245 138.533 21.461 135.87 21.461C133.443 21.461 130.993 19.9728 130.993 16.6501C130.993 13.7806 132.894 11.773 135.616 11.773C136.5 11.773 137.502 12.0897 137.66 12.6202L137.682 12.7086C137.889 13.4638 138.578 13.9831 139.355 13.9795L141.93 13.9832V11.7287C141.93 8.75603 138.154 7.68408 135.609 7.68408C130.172 7.68408 126.23 11.4672 126.23 16.6796C126.23 21.8883 130.131 25.6714 135.509 25.6714C140.176 25.6714 142.711 22.6029 142.736 22.5771L142.869 22.4114L140.828 19.0261L140.57 19.3097Z" fill="#191825" fill-opacity="0.5"/>
</g>
</g>
</svg>
