<svg width="213" height="32" viewBox="0 0 213 32" fill="none" xmlns="http://www.w3.org/2000/svg">
<path d="M23.1815 19.2269C25.0032 24.1625 30.4938 26.6889 35.4307 24.8714C40.3649 23.0412 42.8969 17.5563 41.0682 12.6193C39.245 7.67668 33.763 5.15453 28.8189 6.97624C23.8791 8.80501 21.357 14.2871 23.1815 19.2269Z" fill="white"/>
<path d="M10.9884 25.4221C16.2545 25.4221 20.5234 21.1531 20.5234 15.8871C20.5234 10.621 16.2545 6.35205 10.9884 6.35205C5.72235 6.35205 1.45337 10.621 1.45337 15.8871C1.45337 21.1531 5.72235 25.4221 10.9884 25.4221Z" fill="white"/>
<path d="M12.6142 15.7854C12.6142 16.757 11.8247 17.5535 10.8532 17.5535C9.87735 17.5535 9.08936 16.7584 9.08936 15.7854C9.08936 14.8153 9.87735 14.0287 10.8532 14.0287C11.8247 14.0301 12.6142 14.8153 12.6142 15.7854Z" fill="#191825" fill-opacity="0.5"/>
<path d="M33.8628 15.7854C33.8628 16.757 33.0762 17.5535 32.1046 17.5535C31.126 17.5535 30.3408 16.7584 30.3408 15.7854C30.3408 14.8153 31.126 14.0287 32.1046 14.0287C33.0776 14.0301 33.8628 14.8153 33.8628 15.7854Z" fill="#191825" fill-opacity="0.5"/>
<path d="M5.61401 15.7854C5.61401 18.6761 7.96529 21.0231 10.856 21.0231C13.7397 21.0231 16.0896 18.6761 16.0896 15.7854C16.0896 12.9017 13.7383 10.5532 10.856 10.5532C7.96671 10.556 5.61401 12.9031 5.61401 15.7854ZM7.42019 15.7854C7.42019 13.8944 8.96512 12.3566 10.8589 12.3566C12.7498 12.3566 14.2862 13.8987 14.2862 15.7854C14.2862 17.6819 12.7498 19.2226 10.8589 19.2226C8.96512 19.224 7.42019 17.6847 7.42019 15.7854Z" fill="#191825" fill-opacity="0.5"/>
<path d="M26.8655 15.7854C26.8655 18.6761 29.2139 21.0231 32.1033 21.0231C34.9883 21.0231 37.3354 18.6761 37.3354 15.7854C37.3354 12.9017 34.9883 10.5532 32.1033 10.5532C29.2153 10.556 26.8655 12.9031 26.8655 15.7854ZM28.6717 15.7854C28.6717 13.8944 30.2123 12.3566 32.1075 12.3566C33.9984 12.3566 35.5334 13.8987 35.5334 15.7854C35.5334 17.6819 33.9984 19.2226 32.1075 19.2226C30.2095 19.224 28.6717 17.6847 28.6717 15.7854Z" fill="#191825" fill-opacity="0.5"/>
<path d="M28.4519 5.97215C29.5562 5.56544 30.6859 5.36774 31.8016 5.33667C28.7626 3.97674 25.3225 3.2876 21.511 3.2876C17.7292 3.2876 14.2383 3.99228 11.2007 5.29148C16.6983 5.40022 21.1679 9.70596 21.5534 15.133C21.6466 13.8874 21.9516 12.656 22.4897 11.4895C23.6745 8.90949 25.7942 6.9522 28.4519 5.97215Z" fill="white"/>
<path d="M40.6501 9.62262C41.1472 7.49446 42.7246 5.3649 42.7246 5.3649L35.6453 5.36066C31.6757 2.79755 26.8545 1.43762 21.5136 1.43762C15.9694 1.43762 10.9632 2.83003 7.01621 5.4115L0.380371 5.41715C0.380371 5.41715 1.93942 7.52271 2.44357 9.63533C1.15283 11.3907 0.38602 13.5471 0.38602 15.8885C0.38602 21.7335 5.14365 26.4883 10.9915 26.4883C14.3341 26.4883 17.3152 24.9306 19.2598 22.5102L21.5179 25.8909L23.7929 22.4805C24.8167 23.7825 26.1371 24.8389 27.6849 25.5548C30.2593 26.7382 33.1444 26.8555 35.8007 25.874C41.287 23.8447 44.1043 17.7285 42.075 12.2493C41.7191 11.2848 41.2333 10.4078 40.6501 9.62262ZM21.5122 3.28899C25.3237 3.28899 28.7638 3.97813 31.8028 5.33948C30.6858 5.36913 29.5574 5.56825 28.4531 5.97213C25.7954 6.95219 23.6757 8.90947 22.4937 11.4853C21.9557 12.6517 21.652 13.8832 21.5574 15.1287C21.1691 9.70452 16.6995 5.39879 11.2019 5.28722C14.2381 3.99226 17.7276 3.28899 21.5122 3.28899ZM17.9987 20.6249C16.4764 22.8703 13.9006 24.3502 10.9887 24.3502C6.32 24.3502 2.52124 20.5487 2.52124 15.8899C2.52124 11.2184 6.32141 7.42385 10.9887 7.42385C15.6559 7.42385 19.4547 11.2184 19.4547 15.8899C19.4547 16.1751 19.3996 16.4434 19.37 16.7188C19.2287 18.1494 18.7684 19.4895 17.9987 20.6249ZM35.0593 23.8673C32.9382 24.6468 30.6377 24.5607 28.583 23.6131C27.1257 22.9381 25.9324 21.8803 25.0723 20.567C24.7221 20.036 24.4143 19.4726 24.1869 18.8555C23.9285 18.1578 23.8 17.439 23.7308 16.7146C23.5896 15.2459 23.8028 13.7603 24.4354 12.3834C25.3844 10.3287 27.0734 8.76542 29.1945 7.98025C33.5751 6.36472 38.4513 8.6115 40.0697 12.9907C41.6866 17.3698 39.4384 22.2461 35.0593 23.8673Z" fill="#191825" fill-opacity="0.5"/>
<path d="M55.2325 2.98674L52.1285 4.05859C52.1285 4.05859 52.1285 7.77545 52.1285 8.10872C51.8037 8.10872 48.6885 8.10872 48.6885 8.10872V10.8243C48.6885 10.8243 51.7077 10.8243 52.0353 10.8243C52.0353 11.1774 52.0353 19.5431 52.0353 19.5431C52.0353 23.6865 53.4461 25.3867 56.9158 25.3867C57.7956 25.3867 58.6359 25.278 59.4789 25.0478L59.6159 25.0139L59.5778 22.198L59.3405 22.2884C58.6585 22.5243 58.1247 22.6401 57.7123 22.6401C56.0826 22.6401 55.4782 21.7235 55.4782 19.2494C55.4782 19.2494 55.4782 11.176 55.4782 10.8286C55.8087 10.8286 59.4479 10.8286 59.4479 10.8286V8.10872C59.4479 8.10872 55.8101 8.10872 55.4782 8.10872C55.4782 7.77262 55.4782 2.90625 55.4782 2.90625L55.2325 2.98674Z" fill="#191825" fill-opacity="0.5"/>
<path d="M65.9648 10.8597C65.9648 9.90363 65.9648 8.10875 65.9648 8.10875H62.8157V25.0874H66.2586V16.5649C66.2586 12.9921 67.7597 11.0235 70.4796 11.0235C70.8736 11.0235 71.2563 11.0828 71.7223 11.2141L71.9454 11.2777L72.0584 7.92657L70.577 7.8136C68.5816 7.81219 66.9703 8.88968 65.9648 10.8597Z" fill="#191825" fill-opacity="0.5"/>
<path d="M78.1946 8.10732H74.9353V25.0874H78.3782V8.10732H78.1946ZM74.6021 3.13221C74.6021 4.26195 75.5228 5.17846 76.6497 5.17846C77.7795 5.17846 78.6974 4.26195 78.6974 3.13221C78.6974 2.00388 77.7795 1.08314 76.6497 1.08314C75.5228 1.08031 74.6021 2.00388 74.6021 3.13221Z" fill="#191825" fill-opacity="0.5"/>
<path d="M90.5372 7.70911C88.1746 7.70911 86.1877 8.82755 84.8631 10.8625C84.8631 10.0491 84.8631 8.10452 84.8631 8.10452H81.7153V32H85.161C85.161 32 85.161 23.6554 85.161 22.7375C86.4038 24.4279 88.1859 25.3571 90.4045 25.3571C94.7568 25.3571 97.5685 21.7857 97.5685 16.2712C97.5685 11.1506 94.7413 7.70911 90.5372 7.70911ZM89.5755 22.5723C86.8514 22.5723 85.1596 20.2436 85.1596 16.5028C85.1596 12.8918 86.9446 10.5589 89.7069 10.5589C92.3688 10.5589 93.9603 12.7704 93.9603 16.4674C93.9618 20.2309 92.2798 22.5723 89.5755 22.5723Z" fill="#191825" fill-opacity="0.5"/>
<path d="M107.631 7.70911C105.526 7.70911 103.681 8.10734 101.99 8.92076L101.885 8.9716L101.922 11.9103L102.193 11.7578C103.81 10.854 105.341 10.3922 106.735 10.3922C109.228 10.3922 110.66 11.8214 110.66 14.3195C110.66 14.3195 110.66 14.3915 110.66 14.465C110.357 14.465 108.69 14.465 108.69 14.465C103.022 14.465 99.9038 16.5183 99.9038 20.2408C99.9038 23.2304 102.155 25.3204 105.377 25.3204C107.748 25.3204 109.583 24.3884 110.891 22.6344C110.891 23.3165 110.891 25.086 110.891 25.086H114.002V14.811C114 10.1013 111.858 7.70911 107.631 7.70911ZM110.655 17.9192C110.655 20.8438 108.895 22.7361 106.172 22.7361C104.505 22.7361 103.341 21.6403 103.341 20.0727C103.341 18.0124 105.311 16.8812 108.887 16.8812C108.887 16.8812 110.36 16.8812 110.658 16.8812C110.655 17.1453 110.655 17.9192 110.655 17.9192Z" fill="#191825" fill-opacity="0.5"/>
<path d="M128.623 0C128.623 0 128.623 9.46584 128.623 10.412C127.353 8.64678 125.587 7.71192 123.317 7.71192C119.105 7.71192 116.275 11.1802 116.275 16.3347C116.275 21.6445 119.146 25.3529 123.248 25.3529C125.679 25.3529 127.574 24.2768 128.887 22.1853C128.887 23.0312 128.887 25.0888 128.887 25.0888H132.07V0H128.623ZM124.141 22.5031C121.517 22.5031 119.887 20.2154 119.887 16.5324C119.887 12.8452 121.531 10.4614 124.079 10.4614C126.923 10.4614 128.62 12.7294 128.62 16.5324C128.623 20.1659 126.869 22.5031 124.141 22.5031Z" fill="#191825" fill-opacity="0.5"/>
<path d="M147.455 8.1073L142.573 17.9121L138.06 8.1073H134.18L142.501 25.0874L151.047 8.1073H147.455Z" fill="#191825" fill-opacity="0.5"/>
<path d="M156.059 8.10732H152.799V25.0874H156.246V8.10732H156.059ZM152.47 3.13221C152.47 4.26195 153.389 5.17846 154.517 5.17846C155.651 5.17846 156.565 4.26195 156.565 3.13221C156.565 2.00388 155.649 1.08314 154.517 1.08314C153.39 1.08031 152.47 2.00388 152.47 3.13221Z" fill="#191825" fill-opacity="0.5"/>
<path d="M160.283 12.4611C160.283 14.849 161.924 16.1073 164.954 17.5901C166.865 18.5292 167.863 19.0828 167.863 20.406C167.863 21.7631 166.637 22.64 164.734 22.64C163.388 22.64 161.894 22.2616 160.414 21.5343L160.163 21.41L160.051 24.4039L160.165 24.4462C161.58 25.0097 163.067 25.2851 164.604 25.2851C168.815 25.2851 171.533 23.2784 171.533 20.173C171.533 17.5844 169.812 16.2697 166.828 14.8773C164.643 13.8506 163.727 13.2533 163.727 12.1645C163.727 11.1336 164.747 10.4614 166.323 10.4614C167.746 10.4614 169.136 10.7777 170.45 11.4047L170.699 11.5191L170.849 8.59027L170.712 8.55072C169.285 8.12707 167.877 7.91383 166.522 7.91383C162.791 7.90818 160.283 9.73837 160.283 12.4611Z" fill="#191825" fill-opacity="0.5"/>
<path d="M182.277 7.70911C177.102 7.70911 173.89 11.1167 173.89 16.596C173.89 22.078 177.105 25.48 182.277 25.48C187.475 25.48 190.702 22.0766 190.702 16.596C190.702 11.1181 187.472 7.70911 182.277 7.70911ZM182.306 22.6712C179.447 22.6712 177.526 20.2168 177.526 16.5635C177.526 12.8904 179.447 10.4276 182.306 10.4276C185.213 10.4276 187.089 12.8381 187.089 16.5635C187.089 20.2747 185.215 22.6712 182.306 22.6712Z" fill="#191825" fill-opacity="0.5"/>
<path d="M197.053 10.8597C197.053 9.90363 197.053 8.10875 197.053 8.10875H193.904V25.0874H197.347V16.5649C197.347 12.9921 198.84 11.0235 201.564 11.0235C201.955 11.0235 202.335 11.0828 202.793 11.2141L203.026 11.2777L203.133 7.92657L201.657 7.8136C199.67 7.81219 198.062 8.88968 197.053 10.8597Z" fill="#191825" fill-opacity="0.5"/>
<path d="M211.346 7.35604C211.911 7.92797 212.207 8.68773 212.207 9.50538C212.207 10.3597 211.888 11.1252 211.301 11.6886C210.688 12.2704 209.928 12.5825 209.134 12.5825C208.305 12.5825 207.543 12.2563 206.95 11.6434C206.383 11.056 206.063 10.3047 206.063 9.50256C206.063 8.6849 206.389 7.89267 206.999 7.29108C207.571 6.73045 208.307 6.42542 209.134 6.42542C209.983 6.42683 210.755 6.7488 211.346 7.35604ZM207.38 7.69355C206.883 8.19064 206.618 8.83036 206.618 9.50538C206.618 10.1635 206.863 10.7693 207.338 11.2522C207.814 11.7493 208.445 12.0176 209.122 12.0176C209.78 12.0176 210.412 11.7649 210.901 11.2904C211.381 10.8286 211.645 10.1959 211.645 9.50397C211.645 8.82753 211.399 8.21323 210.933 7.74298C210.445 7.24589 209.825 6.98464 209.134 6.98464C208.454 6.98464 207.856 7.22753 207.38 7.69355ZM209.191 7.75145C210.154 7.75145 210.648 8.10026 210.648 8.7315C210.648 9.16646 210.39 9.50397 209.931 9.64236L210.688 11.1237H209.662L209.031 9.7864H208.764V11.1237H207.835V7.75004L209.191 7.75145ZM208.757 9.23707H209.081C209.494 9.23707 209.693 9.09161 209.693 8.80211C209.693 8.47166 209.484 8.33609 209.031 8.33609H208.757V9.23707Z" fill="#191825" fill-opacity="0.5"/>
</svg>
