<svg width="589" height="488" viewBox="0 0 589 488" fill="none" xmlns="http://www.w3.org/2000/svg">
<path d="M55.1509 221.871C50.3647 206.223 59.3742 189.697 75.1201 185.243L108.112 175.911C118.913 172.856 130.508 176.263 137.938 184.676L193.846 247.979L86.782 325.286L55.1509 221.871Z" fill="#FF992D"/>
<path d="M142.727 242.606C149.676 233.759 150.923 221.706 145.933 211.624L135.541 190.63C134.029 187.574 138.088 184.847 140.345 187.402L193.845 247.979L84.3982 316.859L142.727 242.606Z" fill="#E87F0F"/>
<ellipse cx="490.218" cy="228.61" rx="62.0317" ry="42.3275" transform="rotate(-15.7946 490.218 228.61)" fill="#C86709"/>
<path d="M502.858 225.034C509.221 247.528 500.385 276.548 470.522 284.995C440.659 293.442 436.189 268.187 429.826 245.692C423.463 223.198 413.048 195.832 442.911 187.385C472.774 178.937 496.495 202.54 502.858 225.034Z" fill="#C86709"/>
<path d="M99.5999 280.853C213.574 194.736 371.25 162.388 428.242 160.425C437.965 160.09 447.297 163.61 454.523 170.124C492.713 204.547 497.769 250.088 493.062 283.117C490.429 301.591 474.987 314.633 456.773 318.689C310.373 351.296 175.671 347.235 107.165 332.441C78.9354 326.344 76.5576 298.263 99.5999 280.853Z" fill="#FF992D"/>
<path d="M179.487 269.305L179.163 275.959L174.583 279.571L180.339 280.519L183.839 286.188L184.163 279.533L188.743 275.921L182.988 274.973L179.487 269.305Z" fill="#FEC091"/>
<path d="M273.524 308.736L273.747 313.316L276.899 315.802L272.938 316.455L270.529 320.356L270.306 315.776L267.153 313.29L271.115 312.638L273.524 308.736Z" fill="#FEC091"/>
<path d="M161.638 321.469C214.524 325.64 229.614 326.435 259.1 325.839C335.781 324.292 432.112 299.571 468.676 301.317C482.655 301.985 474.858 314.696 461.222 317.846C340.481 345.737 229.905 348.292 156.604 340.184C119.583 336.089 124.507 318.54 161.638 321.469Z" fill="#FF992D"/>
<path d="M437.766 313.979L427.635 278.166L401.647 325.713L437.766 313.979Z" fill="#FF992D"/>
<path d="M473.079 189.469C462.972 143.448 465.741 124.804 476.244 121.833C488.887 118.257 512.744 163.46 529.529 222.799C546.314 282.137 549.671 333.139 537.028 336.715C526.524 339.687 510.214 315.822 494.717 271.325" stroke="#25223A" stroke-width="2.91914"/>
<path d="M520.506 223.075C534.548 272.718 539.325 314.83 531.175 317.135C526.274 318.521 518.661 308.191 510.11 288.207M480.323 137.364C484.767 136.107 492.137 146.946 500.198 165.113" stroke="#25223A" stroke-width="0.729785" stroke-linecap="round" stroke-dasharray="58.38 58.38"/>
<path d="M523.391 301.135C526.078 300.375 525.725 290.039 522.29 272.283M480.882 150.857C478.447 151.546 479.092 162.168 482.086 178.413" stroke="#25223A" stroke-width="0.729785" stroke-linecap="round" stroke-dasharray="58.38 58.38"/>
<path d="M317.471 293.409C319.783 286.578 325.311 281.324 332.25 279.361L399.581 260.315C418.24 255.037 434.043 274.831 424.764 291.858L363.122 404.984C360.068 410.589 354.719 414.582 348.477 415.917L282.903 429.943C277.366 431.128 272.648 425.83 274.464 420.467L317.471 293.409Z" fill="#FFBE78"/>
<path d="M273.221 424.276C273.969 421.827 275.841 419.882 278.26 419.041L346.824 395.214C358.037 391.318 365.684 406.533 355.867 413.206C354.966 413.819 353.971 414.283 352.922 414.58L283.077 434.337C276.968 436.065 271.368 430.348 273.221 424.276Z" fill="#FF992D"/>
<path d="M87.8223 321.251C89.0871 316.171 92.9755 312.158 98.0128 310.733L157.879 293.799C171.268 290.011 181.859 305.327 173.59 316.518L157.498 338.293C142.121 359.101 120.27 374.212 95.374 381.254L83.2874 384.673C77.8938 386.199 72.8651 381.327 74.2193 375.888L87.8223 321.251Z" fill="#FFBE78"/>
<path d="M121.317 267.737C130.933 257.938 159.158 241.713 181.884 229.824" stroke="white" stroke-width="1.45957" stroke-linecap="round"/>
<path d="M386.696 179.017C390.536 192.591 369.125 210.532 338.874 219.089C308.623 227.646 280.988 223.579 277.148 210.005C273.308 196.431 296.904 186.214 327.154 177.657C357.405 169.1 382.856 165.443 386.696 179.017Z" fill="#C86709"/>
<path d="M386.696 179.017C390.536 192.591 369.125 210.532 338.874 219.089C308.623 227.646 280.988 223.579 277.148 210.005C273.308 196.431 297.735 213.283 327.986 204.726C358.236 196.169 369.828 189.098 386.696 179.017Z" fill="#C86709"/>
<circle cx="471.378" cy="226.354" r="5.83828" transform="rotate(-15.7946 471.378 226.354)" fill="#C86709"/>
<circle cx="462.822" cy="201.472" r="4.37871" transform="rotate(-15.7946 462.822 201.472)" fill="#C86709"/>
<circle cx="449.443" cy="180.987" r="2.91914" transform="rotate(-15.7946 449.443 180.987)" fill="#C86709"/>
<circle cx="477.521" cy="253.436" r="4.37871" transform="rotate(-15.7946 477.521 253.436)" fill="#C86709"/>
<circle cx="479.665" cy="277.1" r="2.91914" transform="rotate(-15.7946 479.665 277.1)" fill="#C86709"/>
<circle cx="434.235" cy="170.12" r="1.45957" transform="rotate(-15.7946 434.235 170.12)" fill="#C86709"/>
<circle cx="477.012" cy="294.535" r="1.45957" transform="rotate(-15.7946 477.012 294.535)" fill="#C86709"/>
<path opacity="0.6" d="M357.997 380.532L409.391 278.017" stroke="white" stroke-width="2.91914" stroke-linecap="round"/>
<path d="M76.9518 199.186C76.9383 197.7 78.8948 197.146 79.6616 198.419L82.5188 203.162C83.0111 203.979 84.1421 204.112 84.8105 203.432L88.6899 199.481C89.731 198.42 91.5058 199.412 91.148 200.855L89.8145 206.229C89.5848 207.155 90.2905 208.049 91.2445 208.04L96.7814 207.989C98.2673 207.976 98.8208 209.932 97.5479 210.699L92.8049 213.556C91.9877 214.048 91.8547 215.179 92.5355 215.848L96.4865 219.727C97.5468 220.768 96.5547 222.543 95.1124 222.185L89.7382 220.852C88.8123 220.622 87.9185 221.328 87.9272 222.282L87.9779 227.819C87.9915 229.305 86.0349 229.858 85.2681 228.585L82.4109 223.842C81.9186 223.025 80.7876 222.892 80.1192 223.573L76.2398 227.524C75.1987 228.584 73.4239 227.592 73.7817 226.15L75.1152 220.775C75.3449 219.85 74.6392 218.956 73.6852 218.964L68.1483 219.015C66.6624 219.029 66.1089 217.072 67.3818 216.305L72.1248 213.448C72.942 212.956 73.075 211.825 72.3943 211.156L68.4433 207.277C67.3829 206.236 68.3751 204.461 69.8173 204.819L75.1915 206.152C76.1174 206.382 77.0112 205.676 77.0025 204.723L76.9518 199.186Z" fill="#FF5B59"/>
<path d="M78.5033 203.215C78.4935 202.147 79.8995 201.749 80.4505 202.664L82.5036 206.072C82.8574 206.659 83.6701 206.755 84.1504 206.266L86.938 203.427C87.6861 202.665 88.9615 203.378 88.7044 204.414L87.7462 208.276C87.5811 208.941 88.0882 209.584 88.7737 209.577L92.7524 209.541C93.8202 209.531 94.2179 210.937 93.3032 211.488L89.895 213.541C89.3078 213.895 89.2122 214.708 89.7014 215.188L92.5405 217.976C93.3024 218.724 92.5895 219.999 91.5531 219.742L87.6913 218.784C87.026 218.619 86.3837 219.126 86.39 219.811L86.4264 223.79C86.4362 224.858 85.0302 225.255 84.4792 224.341L82.4261 220.933C82.0723 220.345 81.2596 220.25 80.7793 220.739L77.9917 223.578C77.2435 224.34 75.9682 223.627 76.2253 222.591L77.1835 218.729C77.3486 218.064 76.8415 217.421 76.156 217.428L72.1773 217.464C71.1095 217.474 70.7118 216.068 71.6265 215.517L75.0347 213.464C75.6219 213.11 75.7175 212.297 75.2283 211.817L72.3892 209.029C71.6273 208.281 72.3402 207.006 73.3766 207.263L77.2384 208.221C77.9037 208.386 78.546 207.879 78.5397 207.194L78.5033 203.215Z" fill="#FF5B59"/>
<path d="M161.786 316.962C151.516 334.278 143.796 357.394 88.6565 374.811" stroke="white" stroke-width="1.45957" stroke-linecap="round"/>
<mask id="mask0_1_1423" style="mask-type:alpha" maskUnits="userSpaceOnUse" x="276" y="170" width="112" height="54">
<path d="M386.696 179.017C390.535 192.591 369.125 210.532 338.874 219.089C308.623 227.646 280.988 223.579 277.148 210.005C273.308 196.431 296.904 186.214 327.154 177.657C357.405 169.1 382.856 165.443 386.696 179.017Z" fill="#C86709"/>
</mask>
<g mask="url(#mask0_1_1423)">
<path d="M288.923 230.185C282.109 159.897 284.438 150.239 293.082 133.915C294.672 130.91 298.329 129.852 301.682 130.415C305.724 131.095 309.008 130.248 311.599 128.48C314.022 126.828 317.057 125.704 319.558 127.235C338.474 138.814 358.098 176.683 371.361 215.967L288.923 230.185Z" fill="#FF5B59"/>
</g>
<path d="M285.826 191.886C288.113 148.603 286.551 146.702 293.11 133.938C294.664 130.915 298.33 129.852 301.682 130.415C305.724 131.094 309.008 130.248 311.599 128.48C314.022 126.828 317.053 125.708 319.656 127.058C337.629 136.377 351.379 158.265 364.594 197.404L302.779 207.255C293.543 208.726 285.332 201.225 285.826 191.886Z" fill="#FF5B59"/>
<path d="M375.098 176.552L371.839 180.569L374.364 189.495L386.693 187.632C389.481 187.211 392.055 185.891 394.024 183.874L397.024 180.8C398.407 179.383 398.928 177.334 398.389 175.427C397.689 172.954 395.38 171.288 392.813 171.404L384.567 171.777C380.874 171.943 377.428 173.681 375.098 176.552Z" fill="#FCA378"/>
<path d="M389.372 184.2L381.693 173.98C381.068 173.149 381.629 171.958 382.667 171.909L393.421 171.402C395.683 171.295 397.764 172.633 398.605 174.735C399.407 176.741 398.915 179.032 397.361 180.532L393.239 184.508C392.12 185.589 390.306 185.444 389.372 184.2Z" fill="#E87F0F"/>
<path d="M293.676 209.022C287.261 184.961 288.592 151.808 293.377 134.643C294.253 131.502 297.571 129.957 300.809 130.343C302.374 130.53 303.894 130.632 305.278 130.685C308.641 130.815 311.439 133.284 311.711 136.638L315.246 180.255C315.924 188.619 324.258 194.138 332.223 191.498L368.7 179.41C370.1 178.946 371.605 179.743 372.006 181.163L372.842 184.118C374.588 190.289 371.553 196.808 365.706 199.445L321.217 219.506C310.061 224.536 296.829 220.846 293.676 209.022Z" fill="#DF1E1C"/>
<path fill-rule="evenodd" clip-rule="evenodd" d="M303.825 67.4813C315.155 67.0365 290.219 74.3265 301.193 77.2527C312.836 80.3573 304.535 73.0678 311.473 82.9924C310.38 91.4452 312.609 74.5458 311.473 82.9924C309.85 95.0511 314.362 111.028 304.516 118.058C294.85 124.96 320.408 110.222 309.302 114.404C286.921 122.83 275.363 157.22 251.568 154.595C231.986 152.434 224.148 124.359 221.466 104.711C219.012 86.7341 247.049 130.271 254.77 113.916C260.531 101.714 267.449 90.3893 277.577 81.5335C286.774 73.4905 291.628 67.9601 303.825 67.4813Z" fill="#25223A"/>
<circle cx="299.671" cy="102.232" r="25.2134" transform="rotate(-15.7946 299.671 102.232)" fill="#E87F0F"/>
<circle cx="299.671" cy="102.232" r="25.2134" transform="rotate(-15.7946 299.671 102.232)" fill="#FCA378"/>
<path d="M305.355 126.827C277.563 130.723 276.191 105.938 282.303 95.0027C318.389 73.929 322.479 76.2112 316.315 87.2392C314.084 90.1731 297.583 92.972 295.797 96.7567C292.912 102.869 292.382 113.262 295.858 119.949C298.126 124.312 304.088 126.586 305.355 126.827Z" fill="#E87F0F"/>
<rect x="288.17" y="100.777" width="20.7259" height="4.14518" transform="rotate(-15.7946 288.17 100.777)" fill="#27A2A1"/>
<path d="M315.075 87.1887C319.052 86.4455 321.735 82.5574 320.142 78.838C318.663 75.3874 316.622 72.1936 314.091 69.4031C309.918 64.8017 304.583 61.4848 298.702 59.8349C292.82 58.1851 286.632 58.2695 280.852 60.0786C275.071 61.8876 269.933 65.3475 266.031 70.0591C262.129 74.7708 259.621 80.5421 258.797 86.7075C257.973 92.8729 258.866 99.181 261.374 104.904C263.881 110.627 267.901 115.532 272.969 119.054C275.964 121.134 279.252 122.681 282.694 123.648C286.624 124.751 290.087 121.456 290.172 117.374L290.579 97.6754C290.651 94.2193 293.137 91.2875 296.535 90.6526L315.075 87.1887Z" fill="#2AB0AF"/>
<path d="M266.241 95.7634C262.244 96.4204 259.477 100.255 260.997 104.01C262.928 108.78 265.919 113.074 269.767 116.522C273.546 119.907 277.994 122.337 282.75 123.663C286.682 124.76 290.139 121.458 290.216 117.377L290.536 100.503C290.622 95.9449 286.555 92.4243 282.056 93.1638L266.241 95.7634Z" fill="#27A2A1"/>
<path d="M324.609 93.5869C325.903 98.1615 323.104 102.959 318.356 104.302C313.608 105.645 308.711 103.025 307.417 98.4502C306.123 93.8756 310.224 93.6803 314.972 92.3373C319.719 90.9944 323.315 89.0124 324.609 93.5869Z" fill="#45CFCE"/>
<path d="M324.609 93.5868C325.903 98.1614 323.104 102.958 318.356 104.301C313.608 105.644 308.711 103.025 307.417 98.45C306.123 93.8754 312.616 102.136 317.363 100.793C322.111 99.4498 323.315 89.0122 324.609 93.5868Z" fill="#27A2A1"/>
</svg>
