<svg width="363" height="529" viewBox="0 0 363 529" fill="none" xmlns="http://www.w3.org/2000/svg">
<rect x="30" y="152.302" width="53" height="36.4375" rx="2" transform="rotate(-16.7806 30 152.302)" fill="white"/>
<line x1="56.3247" y1="149.814" x2="63.5921" y2="173.914" stroke="#25223A" stroke-width="0.5" stroke-linecap="round"/>
<rect x="69.4919" y="145.583" width="9.10938" height="9.10938" rx="2" transform="rotate(-16.7806 69.4919 145.583)" fill="#FF5B59"/>
<rect x="71.5557" y="146.69" width="5.79688" height="5.79688" rx="2" transform="rotate(-16.7806 71.5557 146.69)" fill="#FF5B59"/>
<rect x="73.6196" y="147.798" width="2.48438" height="2.48438" rx="1.24219" transform="rotate(-16.7806 73.6196 147.798)" fill="white"/>
<circle cx="72.0462" cy="156.922" r="5.54688" transform="rotate(-16.7806 72.0462 156.922)" stroke="#25223A" stroke-width="0.5"/>
<path d="M73.7954 159.854C71.606 160.515 69.51 159.985 69.1138 158.671" stroke="#25223A" stroke-width="0.5" stroke-linecap="round"/>
<path d="M84.3678 162.754C84.4338 162.633 84.389 162.481 84.2678 162.415C84.1465 162.349 83.9947 162.394 83.9287 162.515L84.3678 162.754ZM66.4418 169.319C66.9631 168.488 68.0218 167.352 69.4874 166.672C70.9431 165.997 72.8059 165.769 74.9685 166.748L75.1747 166.292C72.869 165.248 70.8537 165.487 69.2771 166.218C67.7102 166.945 66.5823 168.154 66.0182 169.054L66.4418 169.319ZM74.9685 166.748C77.2924 167.8 79.3583 167.342 80.9796 166.351C82.5907 165.366 83.7704 163.852 84.3678 162.754L83.9287 162.515C83.3624 163.555 82.2379 164.996 80.7187 165.924C79.2097 166.847 77.3191 167.263 75.1747 166.292L74.9685 166.748Z" fill="#FF5B59"/>
<path d="M84.846 164.34C84.912 164.218 84.8672 164.066 84.7459 164C84.6246 163.934 84.4728 163.979 84.4068 164.101L84.846 164.34ZM66.92 170.905C67.4413 170.073 68.5 168.937 69.9655 168.258C71.4213 167.583 73.2841 167.355 75.4467 168.334L75.6529 167.878C73.3471 166.834 71.3319 167.073 69.7552 167.804C68.1884 168.531 67.0605 169.739 66.4963 170.639L66.92 170.905ZM75.4467 168.334C77.7705 169.386 79.8365 168.928 81.4577 167.937C83.0689 166.952 84.2485 165.437 84.846 164.34L84.4068 164.101C83.8405 165.141 82.716 166.581 81.1969 167.51C79.6878 168.433 77.7973 168.849 75.6529 167.878L75.4467 168.334Z" fill="#FF5B59"/>
<path d="M85.3242 165.925C85.3902 165.804 85.3454 165.652 85.2241 165.586C85.1028 165.52 84.951 165.565 84.885 165.686L85.3242 165.925ZM67.3982 172.491C67.9194 171.659 68.9782 170.523 70.4437 169.844C71.8995 169.169 73.7623 168.94 75.9248 169.919L76.1311 169.464C73.8253 168.42 71.8101 168.659 70.2334 169.39C68.6666 170.116 67.5387 171.325 66.9745 172.225L67.3982 172.491ZM75.9248 169.919C78.2487 170.972 80.3146 170.514 81.9359 169.522C83.5471 168.537 84.7267 167.023 85.3242 165.925L84.885 165.686C84.3187 166.727 83.1942 168.167 81.6751 169.096C80.166 170.019 78.2755 170.435 76.1311 169.464L75.9248 169.919Z" fill="#FF5B59"/>
<line x1="35.0122" y1="156.584" x2="51.9765" y2="151.468" stroke="#25223A" stroke-width="0.5" stroke-linecap="round"/>
<line x1="36.4467" y1="161.341" x2="48.6538" y2="157.66" stroke="#25223A" stroke-width="0.5" stroke-linecap="round"/>
<line x1="37.8813" y1="166.098" x2="54.8455" y2="160.983" stroke="#25223A" stroke-width="0.5" stroke-linecap="round"/>
<line x1="39.3158" y1="170.855" x2="56.28" y2="165.74" stroke="#25223A" stroke-width="0.5" stroke-linecap="round"/>
<line x1="40.7503" y1="175.613" x2="57.7145" y2="170.497" stroke="#25223A" stroke-width="0.5" stroke-linecap="round"/>
<line x1="42.1848" y1="180.37" x2="59.149" y2="175.254" stroke="#25223A" stroke-width="0.5" stroke-linecap="round"/>
<path fill-rule="evenodd" clip-rule="evenodd" d="M343.834 163.255L350.467 164.943C350.424 165.818 351 166.631 351.881 166.855C352.763 167.08 353.658 166.641 354.038 165.852L356.99 166.603L356.248 169.519L356.248 169.519C355.242 169.263 354.218 169.871 353.962 170.877C353.706 171.884 354.314 172.907 355.321 173.163L355.321 173.163L353.651 179.723L353.651 179.723C352.645 179.467 351.621 180.075 351.365 181.082C351.109 182.088 351.717 183.112 352.724 183.368L352.724 183.368L351.054 189.927L351.054 189.927C350.048 189.671 349.024 190.28 348.768 191.286C348.512 192.292 349.12 193.316 350.127 193.572L350.127 193.572L348.458 200.132C347.451 199.875 346.428 200.484 346.172 201.49C345.916 202.496 346.524 203.52 347.53 203.776L347.066 205.598L344.151 204.856C344.151 204.856 344.151 204.856 344.151 204.856C344.407 203.85 343.799 202.826 342.792 202.57C341.786 202.314 340.762 202.922 340.506 203.929C340.506 203.929 340.506 203.929 340.506 203.929L333.946 202.259L333.947 202.259C334.203 201.252 333.594 200.229 332.588 199.973C331.582 199.717 330.558 200.325 330.302 201.331L330.302 201.332L323.742 199.663L323.742 199.662C323.998 198.656 323.39 197.633 322.384 197.377C321.378 197.12 320.354 197.729 320.098 198.735L320.098 198.735L317.182 197.993L317.646 196.171C318.652 196.427 319.676 195.818 319.932 194.812C320.188 193.806 319.58 192.782 318.574 192.526L320.243 185.966C321.249 186.222 322.273 185.614 322.529 184.608C322.785 183.602 322.177 182.578 321.17 182.322L322.84 175.762C323.846 176.018 324.869 175.41 325.126 174.404C325.382 173.397 324.774 172.374 323.767 172.118L325.437 165.558C326.443 165.814 327.467 165.206 327.723 164.199C327.979 163.193 327.371 162.17 326.364 161.914L327.106 158.998L330.058 159.749C330.015 160.624 330.591 161.437 331.473 161.662C332.355 161.886 333.249 161.447 333.63 160.658L340.262 162.346C340.22 163.221 340.796 164.034 341.677 164.258C342.559 164.483 343.453 164.044 343.834 163.255Z" fill="#FF5B59"/>
<rect x="329.432" y="162.912" width="24.143" height="32.9954" transform="rotate(14.2782 329.432 162.912)" fill="white"/>
<rect x="331.443" y="167.911" width="17.7789" height="24.2979" rx="2" transform="rotate(14.2782 331.443 167.911)" fill="#26C589"/>
<path d="M325.524 191.385L349.079 172.248" stroke="white"/>
<path d="M331.904 195.802L349.079 181.571" stroke="white"/>
<path d="M326.015 181.08L343.19 166.85" stroke="white"/>
<ellipse opacity="0.5" cx="185.283" cy="520.815" rx="134.226" ry="8.18452" fill="#FEC091"/>
<path d="M200.27 312.578L187.332 251.418L97.2803 345.029L125.957 381.329L195.557 325.727C199.488 322.587 201.311 317.5 200.27 312.578Z" fill="#27A2A1"/>
<path d="M165.886 226.735L184.252 299.498C185.578 304.751 183.587 310.283 179.218 313.486L114.341 361.042" stroke="white" stroke-width="4.4351"/>
<path fill-rule="evenodd" clip-rule="evenodd" d="M321.773 368.851C325.204 373.556 319.287 380.108 320.205 385.87C320.765 389.389 324.728 391.23 325.873 394.601C328.148 401.303 334.836 409.653 330.059 414.898C325.519 419.883 317.372 412.333 310.749 411.207C306.377 410.463 302.162 410.615 297.89 409.428C291.972 407.785 284.055 408.377 281.116 402.978C278.216 397.652 282.55 391.196 284.911 385.59C286.876 380.921 289.659 376.796 293.519 373.518C297.305 370.305 301.698 367.996 306.587 367.188C311.743 366.337 318.699 364.633 321.773 368.851Z" fill="#FF992D"/>
<path d="M289.873 284.477L271.732 189.262C270.363 182.074 263.446 177.341 256.251 178.667L222.448 184.897C215.191 186.234 210.408 193.223 211.79 200.472L229.9 295.53" stroke="#25223A" stroke-width="8.8702" stroke-linecap="round"/>
<path fill-rule="evenodd" clip-rule="evenodd" d="M319.674 373.899C322.37 377.599 317.72 382.749 318.441 387.278C318.881 390.044 321.997 391.491 322.896 394.142C324.685 399.41 329.942 405.974 326.188 410.097C322.619 414.015 316.214 408.08 311.008 407.195C307.571 406.611 304.258 406.73 300.899 405.797C296.247 404.505 290.024 404.971 287.714 400.727C285.434 396.54 288.841 391.465 290.696 387.058C292.242 383.388 294.429 380.145 297.464 377.569C300.44 375.042 303.893 373.228 307.736 372.593C311.789 371.923 317.257 370.584 319.674 373.899Z" fill="#E87F0F"/>
<rect x="209.512" y="295.801" width="101.823" height="145.923" rx="13.3053" transform="rotate(-10.4421 209.512 295.801)" fill="#E87F0F"/>
<path d="M206.847 308.631L214.83 297.987L221.039 316.614L206.847 308.631Z" fill="#E87F0F"/>
<path d="M323.933 427.935L331.917 417.291L322.603 411.525L323.933 427.935Z" fill="#E87F0F"/>
<rect x="202.416" y="305.558" width="101.823" height="145.923" rx="13.3053" transform="rotate(-10.4421 202.416 305.558)" fill="#FF992D"/>
<path opacity="0.5" d="M226.68 435.731L209.984 343.555C230.293 424.299 267.171 440.226 286.503 438.111L290.528 437.354C289.294 437.694 287.947 437.953 286.503 438.111L242.231 446.436C234.975 447.8 227.996 442.996 226.68 435.731Z" fill="#E87F0F"/>
<rect x="224.056" y="317.81" width="8.71181" height="114.705" rx="4.3559" transform="rotate(-10.4421 224.056 317.81)" fill="#E87F0F"/>
<rect x="252.614" y="312.547" width="8.71181" height="114.705" rx="4.3559" transform="rotate(-10.4421 252.614 312.547)" fill="#E87F0F"/>
<rect x="281.173" y="307.284" width="8.71181" height="114.705" rx="4.3559" transform="rotate(-10.4421 281.173 307.284)" fill="#E87F0F"/>
<path d="M108.725 292.323L109.235 297.007L112.621 299.364L108.598 300.276L106.367 304.426L105.857 299.742L102.47 297.386L106.494 296.473L108.725 292.323Z" fill="#FEC091"/>
<path d="M205.41 396.991L205.921 401.676L209.307 404.032L205.284 404.945L203.052 409.095L202.542 404.41L199.156 402.054L203.179 401.141L205.41 396.991Z" fill="#FEC091"/>
<path d="M200.379 147.063L204.043 151.699L209.211 151.945L205.546 155.596L205.942 161.492L202.277 156.856L197.109 156.611L200.775 152.959L200.379 147.063Z" fill="#FEC091"/>
<path d="M212.423 14.019L212.548 18.1056L215.318 20.3729L211.776 20.8904L209.565 24.3295L209.44 20.2429L206.67 17.9757L210.212 17.4582L212.423 14.019Z" fill="#FEC091"/>
<path d="M318.107 263.681L318.395 269.584L322.457 272.788L317.352 273.628L314.247 278.657L313.96 272.754L309.897 269.55L315.002 268.709L318.107 263.681Z" fill="#FEC091"/>
<path d="M97.0656 108.095L96.889 111.404L98.9722 113.423L96.0766 113.601L94.0577 116.228L94.2343 112.919L92.1511 110.9L95.0467 110.723L97.0656 108.095Z" fill="#FEC091"/>
<circle cx="258.054" cy="449.59" r="4.3559" transform="rotate(-10.4421 258.054 449.59)" fill="#25223A"/>
<circle cx="308.031" cy="440.38" r="4.3559" transform="rotate(-10.4421 308.031 440.38)" fill="#25223A"/>
<path d="M235.156 297.815L279.421 289.657L280.09 293.286C280.978 298.104 277.792 302.729 272.974 303.617L246.155 308.56C241.338 309.448 236.712 306.262 235.824 301.444L235.156 297.815Z" fill="#E87F0F"/>
<path d="M235.155 297.815L279.582 289.56L279.712 290.347C280.5 295.118 277.323 299.64 272.568 300.517L245.589 305.489C240.772 306.377 236.146 303.191 235.258 298.373L235.155 297.815Z" fill="white"/>
<path d="M237.673 290.228L235 298.248L279.554 289.782L280 282.654L237.673 290.228Z" fill="#FEC091"/>
<path d="M216.283 175.492L210.522 179.548V188.86L224.315 190.603C226.231 190.845 228.174 190.455 229.849 189.492L235.349 186.33C236.725 185.538 237.574 184.072 237.574 182.485V180.947C237.574 178.887 236.157 177.099 234.152 176.629L223.416 174.109C220.95 173.53 218.354 174.034 216.283 175.492Z" fill="#E87F0F"/>
<path d="M226.803 188.717L221.56 175.149C221.303 174.485 221.895 173.804 222.588 173.965L234.498 176.735C236.339 177.163 237.706 178.711 237.904 180.59L238.035 181.827C238.223 183.62 237.308 185.349 235.718 186.201L229.295 189.642C228.355 190.145 227.187 189.712 226.803 188.717Z" fill="#E87F0F"/>
<path d="M200.013 234.664L178.906 124.131L189.267 245.853L193.196 244.993C197.892 243.966 200.915 239.385 200.013 234.664Z" fill="white"/>
<path d="M145.133 450.927V423.237C158.118 426.638 167.032 424.654 169.866 423.237V433.701L188.609 481.165C188.813 481.684 188.919 482.237 188.919 482.794V485.251C188.919 485.875 188.764 486.489 188.468 487.039C187.316 489.178 184.471 489.686 182.65 488.077L148.13 457.574C146.224 455.89 145.133 453.47 145.133 450.927Z" fill="#25223A"/>
<path d="M145.133 422.851V401.982H169.866V422.851C161.828 426.87 150.028 424.525 145.133 422.851Z" fill="#E87F0F"/>
<path d="M169.927 415.96H144.94L145.199 423.5C156.553 427.048 166.527 424.831 169.927 423.5V415.96Z" fill="white"/>
<path d="M78.9602 374.65L94.4252 360.638L111.032 378.967L95.567 392.979C87.1913 389.72 81.0059 379.402 78.9602 374.65Z" fill="#E87F0F"/>
<path d="M62.103 389.772L78.9967 374.432C85.2081 386.331 92.6693 391.597 95.6235 392.742L113.151 443.672C113.728 445.348 113.251 447.207 111.939 448.398L111.782 448.54C111.239 449.034 110.582 449.385 109.869 449.562L107.988 450.029C106.404 450.422 104.733 449.913 103.636 448.706L61.4991 402.302C58.2059 398.675 58.4762 393.065 62.103 389.772Z" fill="#25223A"/>
<path d="M95.5257 393.341C88.7843 391.567 81.7769 380.036 79.1158 374.714L83.9944 369.835L99.9608 389.35L95.5257 393.341Z" fill="white"/>
<rect x="99.4242" y="342.497" width="46.597" height="15.1923" rx="1.77404" transform="rotate(49.8056 99.4242 342.497)" fill="#3D696B" fill-opacity="0.5"/>
<rect x="96.6546" y="341.763" width="51.7852" height="13.9124" rx="1.77404" transform="rotate(49.8056 96.6546 341.763)" fill="#27A2A1"/>
<path d="M132.766 388.842L124.651 257.833L187.643 251.263L183.006 388.842H132.766Z" fill="#2AB0AF"/>
<path d="M160.1 386.954L158.737 248.602H162.078L163.374 386.954H160.1Z" fill="white"/>
<path d="M125.241 258.071L187.333 251.418V264.28L125.241 267.828V258.071Z" fill="#3D696B" fill-opacity="0.5"/>
<path d="M116.358 248.709C121.068 178.234 134.305 130.37 148.721 111.73C150.145 109.888 152.764 109.828 154.763 111.023C159.786 114.025 164.287 113.95 168.035 112.178C169.851 111.319 172.057 111.19 173.314 112.758C187.489 130.428 189.871 201.485 191.865 245.545C192.085 250.419 188.345 254.573 183.473 254.844L125.644 258.057C120.37 258.35 116.006 253.98 116.358 248.709Z" fill="#FF5B59"/>
<path d="M116.235 248.682L122.136 194.649C117.885 263.825 143.665 252.809 156.804 255.9L125.789 258.485C120.231 258.948 115.629 254.227 116.235 248.682Z" fill="#FF2E2C"/>
<path d="M127.4 192.365C125.662 165.805 137.849 128.107 148.244 112.214C149.467 110.345 151.943 109.947 153.968 110.889C156.686 112.154 159.467 113.084 161.669 113.735C163.88 114.389 165.257 116.557 164.811 118.819L154.924 168.934C153.811 174.575 158.276 179.767 164.02 179.512L208.669 177.532C209.679 177.487 210.522 178.293 210.522 179.304V186.807C210.522 191.201 207.305 194.933 202.959 195.581L144.365 204.313C136.072 205.549 127.948 200.732 127.4 192.365Z" fill="#FF2E2C"/>
<rect x="132.337" y="386.245" width="50.5602" height="4.4351" rx="1.77404" fill="#3D696B" fill-opacity="0.5"/>
<rect x="131.993" y="388.069" width="51.7852" height="13.9124" rx="1.77404" fill="#2AB0AF"/>
<path fill-rule="evenodd" clip-rule="evenodd" d="M175.155 23.0707C182.949 24.9485 186.561 33.9007 193.464 38.003C200.787 42.3553 213.729 39.5803 216.539 47.6667C219.453 56.0552 208.43 62.8667 204.938 71.0285C202.569 76.5683 201.75 82.3153 199.352 87.8426C195.928 95.7335 195.923 107.47 187.872 110.358C179.968 113.193 173.817 99.2943 165.457 100.002C148.61 101.427 134.13 122.598 118.449 116.233C105.543 110.994 105.614 90.3879 107.57 76.506C109.359 63.8045 120.055 54.8593 128.454 45.2192C134.721 38.0271 141.607 31.6547 150.2 27.5791C158.005 23.8776 166.766 21.0494 175.155 23.0707Z" fill="#25223A"/>
<circle cx="161.247" cy="89.8687" r="17.8249" fill="#F68853"/>
<path d="M147.373 78.7884C141.111 85.0512 140.725 104.996 160.381 107.694C154.6 104.803 144.964 95.6497 147.373 78.7884Z" fill="#C86709"/>
<rect x="30" y="152.302" width="53" height="36.4375" rx="2" transform="rotate(-16.7806 30 152.302)" fill="white"/>
<line x1="56.6363" y1="149.982" x2="63.7592" y2="173.603" stroke="#25223A" stroke-linecap="round"/>
<rect x="69.4919" y="145.583" width="9.10938" height="9.10938" rx="2" transform="rotate(-16.7806 69.4919 145.583)" fill="#FF5B59"/>
<rect x="71.5557" y="146.69" width="5.79688" height="5.79688" rx="2" transform="rotate(-16.7806 71.5557 146.69)" fill="#FF5B59"/>
<rect x="73.6196" y="147.798" width="2.48438" height="2.48438" rx="1.24219" transform="rotate(-16.7806 73.6196 147.798)" fill="white"/>
<circle cx="72.0462" cy="156.922" r="5.29688" transform="rotate(-16.7806 72.0462 156.922)" stroke="#25223A"/>
<path d="M73.7954 159.854C71.606 160.515 69.51 159.985 69.1138 158.671" stroke="#25223A" stroke-linecap="round"/>
<rect x="35" y="160.459" width="18.5917" height="1" rx="0.5" transform="rotate(-17.0743 35 160.459)" fill="#25223A"/>
<rect x="37" y="166.459" width="8.26471" height="1" rx="0.5" transform="rotate(-17.0743 37 166.459)" fill="#25223A"/>
</svg>
